<mxfile type="github" version="12.6.5" etag="a5EXvzt7wK3MareheAdG" agent="Mozilla/5.0 (Windows NT 10.0; Win64; x64) AppleWebKit/537.36 (KHTML, like Gecko) Chrome/70.0.3538.102 Safari/537.36 Edge/18.18362" modified="2020-02-05T15:32:27.856Z" host="www.draw.io">
  <diagram id="BrAs4xDvaqjIG8iaj59o" name="Page-1">
    <mxGraphModel grid="1" dx="768" dy="498" gridSize="10" guides="1" tooltips="1" connect="1" arrows="1" fold="1" page="1" pageScale="1" pageWidth="850" pageHeight="1100" math="0" shadow="0">
      <root>
        <mxCell id="0"/>
        <mxCell id="1" parent="0"/>
        <mxCell id="cXWGN66kRqV1Yj_a_ciC-4" value="" style="rhombus;whiteSpace=wrap;html=1;" parent="1" vertex="1">
          <mxGeometry as="geometry" x="215" y="300" width="30" height="30"/>
        </mxCell>
        <mxCell id="cXWGN66kRqV1Yj_a_ciC-6" value="PHYSICIAN" style="rounded=0;whiteSpace=wrap;html=1;" parent="1" vertex="1">
          <mxGeometry as="geometry" x="170" y="180" width="120" height="60"/>
        </mxCell>
        <mxCell id="cXWGN66kRqV1Yj_a_ciC-7" value="PATIENT" style="rounded=0;whiteSpace=wrap;html=1;" parent="1" vertex="1">
          <mxGeometry as="geometry" x="170" y="390" width="120" height="60"/>
        </mxCell>
        <mxCell id="cXWGN66kRqV1Yj_a_ciC-8" value="TREATMENT DETAIL" style="rounded=0;whiteSpace=wrap;html=1;" parent="1" vertex="1">
          <mxGeometry as="geometry" x="520" y="390" width="120" height="60"/>
        </mxCell>
        <mxCell id="cXWGN66kRqV1Yj_a_ciC-11" value="" style="endArrow=none;html=1;entryX=0.5;entryY=1;entryDx=0;entryDy=0;exitX=0;exitY=0;exitDx=0;exitDy=0;" target="cXWGN66kRqV1Yj_a_ciC-9" parent="1" edge="1">
          <mxGeometry as="geometry" width="50" height="50" relative="1">
            <mxPoint as="sourcePoint" x="520" y="180"/>
            <mxPoint as="targetPoint" x="80" y="470"/>
          </mxGeometry>
        </mxCell>
        <mxCell id="cXWGN66kRqV1Yj_a_ciC-12" value="" style="endArrow=none;html=1;entryX=0.5;entryY=1;entryDx=0;entryDy=0;" target="cXWGN66kRqV1Yj_a_ciC-10" parent="1" edge="1">
          <mxGeometry as="geometry" width="50" height="50" relative="1">
            <mxPoint as="sourcePoint" x="640" y="183.33333333333337"/>
            <mxPoint as="targetPoint" x="510" y="170"/>
          </mxGeometry>
        </mxCell>
        <mxCell id="cXWGN66kRqV1Yj_a_ciC-13" value="&lt;u&gt;ID&lt;/u&gt;" style="ellipse;whiteSpace=wrap;html=1;" parent="1" vertex="1">
          <mxGeometry as="geometry" x="100" y="490" width="80" height="40"/>
        </mxCell>
        <mxCell id="cXWGN66kRqV1Yj_a_ciC-14" value="" style="endArrow=none;html=1;entryX=0.625;entryY=0;entryDx=0;entryDy=0;exitX=0;exitY=1;exitDx=0;exitDy=0;entryPerimeter=0;" target="cXWGN66kRqV1Yj_a_ciC-13" parent="1" source="cXWGN66kRqV1Yj_a_ciC-7" edge="1">
          <mxGeometry as="geometry" width="50" height="50" relative="1">
            <mxPoint as="sourcePoint" x="100" y="450"/>
            <mxPoint as="targetPoint" x="-280" y="830"/>
          </mxGeometry>
        </mxCell>
        <mxCell id="cXWGN66kRqV1Yj_a_ciC-17" value="Name" style="ellipse;whiteSpace=wrap;html=1;" parent="1" vertex="1">
          <mxGeometry as="geometry" x="290" y="490" width="80" height="40"/>
        </mxCell>
        <mxCell id="cXWGN66kRqV1Yj_a_ciC-18" value="" style="endArrow=none;html=1;entryX=0.625;entryY=0;entryDx=0;entryDy=0;exitX=1;exitY=1;exitDx=0;exitDy=0;entryPerimeter=0;" target="cXWGN66kRqV1Yj_a_ciC-17" parent="1" source="cXWGN66kRqV1Yj_a_ciC-7" edge="1">
          <mxGeometry as="geometry" width="50" height="50" relative="1">
            <mxPoint as="sourcePoint" x="360" y="450"/>
            <mxPoint as="targetPoint" x="-90" y="830"/>
          </mxGeometry>
        </mxCell>
        <mxCell id="cXWGN66kRqV1Yj_a_ciC-19" value="&lt;u&gt;ID&lt;/u&gt;" style="ellipse;whiteSpace=wrap;html=1;" parent="1" vertex="1">
          <mxGeometry as="geometry" x="110" y="110" width="80" height="40"/>
        </mxCell>
        <mxCell id="cXWGN66kRqV1Yj_a_ciC-20" value="" style="endArrow=none;html=1;exitX=0;exitY=0;exitDx=0;exitDy=0;entryX=0.5;entryY=1;entryDx=0;entryDy=0;" target="cXWGN66kRqV1Yj_a_ciC-19" parent="1" source="cXWGN66kRqV1Yj_a_ciC-6" edge="1">
          <mxGeometry as="geometry" width="50" height="50" relative="1">
            <mxPoint as="sourcePoint" x="260" y="70"/>
            <mxPoint as="targetPoint" x="230" y="150"/>
          </mxGeometry>
        </mxCell>
        <mxCell id="cXWGN66kRqV1Yj_a_ciC-21" value="Time" style="ellipse;whiteSpace=wrap;html=1;" parent="1" vertex="1">
          <mxGeometry as="geometry" x="540" y="500" width="80" height="40"/>
        </mxCell>
        <mxCell id="cXWGN66kRqV1Yj_a_ciC-22" value="" style="endArrow=none;html=1;entryX=0.5;entryY=0;entryDx=0;entryDy=0;exitX=0.5;exitY=1;exitDx=0;exitDy=0;" target="cXWGN66kRqV1Yj_a_ciC-21" parent="1" source="cXWGN66kRqV1Yj_a_ciC-8" edge="1">
          <mxGeometry as="geometry" width="50" height="50" relative="1">
            <mxPoint as="sourcePoint" x="580" y="570"/>
            <mxPoint as="targetPoint" x="160" y="840"/>
          </mxGeometry>
        </mxCell>
        <mxCell id="cXWGN66kRqV1Yj_a_ciC-23" value="" style="endArrow=none;html=1;entryX=0.5;entryY=1;entryDx=0;entryDy=0;exitX=0.5;exitY=0;exitDx=0;exitDy=0;" target="cXWGN66kRqV1Yj_a_ciC-4" parent="1" source="cXWGN66kRqV1Yj_a_ciC-7" edge="1">
          <mxGeometry as="geometry" width="50" height="50" relative="1">
            <mxPoint as="sourcePoint" x="100" y="630"/>
            <mxPoint as="targetPoint" x="150" y="580"/>
          </mxGeometry>
        </mxCell>
        <mxCell id="cXWGN66kRqV1Yj_a_ciC-24" value="" style="endArrow=none;html=1;entryX=0.5;entryY=0;entryDx=0;entryDy=0;exitX=0.5;exitY=1;exitDx=0;exitDy=0;" target="cXWGN66kRqV1Yj_a_ciC-4" parent="1" source="cXWGN66kRqV1Yj_a_ciC-25" edge="1">
          <mxGeometry as="geometry" width="50" height="50" relative="1">
            <mxPoint as="sourcePoint" x="240" y="400"/>
            <mxPoint as="targetPoint" x="240" y="340"/>
          </mxGeometry>
        </mxCell>
        <mxCell id="cXWGN66kRqV1Yj_a_ciC-25" value="Admits" style="text;html=1;align=center;verticalAlign=middle;resizable=0;points=[];autosize=1;" parent="1" vertex="1">
          <mxGeometry as="geometry" x="205" y="280" width="50" height="20"/>
        </mxCell>
        <mxCell id="cXWGN66kRqV1Yj_a_ciC-26" value="" style="endArrow=none;html=1;entryX=0.5;entryY=0;entryDx=0;entryDy=0;exitX=0.5;exitY=1;exitDx=0;exitDy=0;" target="cXWGN66kRqV1Yj_a_ciC-25" parent="1" source="cXWGN66kRqV1Yj_a_ciC-6" edge="1">
          <mxGeometry as="geometry" width="50" height="50" relative="1">
            <mxPoint as="sourcePoint" x="230" y="240"/>
            <mxPoint as="targetPoint" x="230" y="300"/>
          </mxGeometry>
        </mxCell>
        <mxCell id="cXWGN66kRqV1Yj_a_ciC-27" value="0...N" style="text;html=1;align=center;verticalAlign=middle;resizable=0;points=[];autosize=1;" parent="1" vertex="1">
          <mxGeometry as="geometry" x="230" y="370" width="40" height="20"/>
        </mxCell>
        <mxCell id="cXWGN66kRqV1Yj_a_ciC-28" value="1...1" style="text;html=1;align=center;verticalAlign=middle;resizable=0;points=[];autosize=1;" parent="1" vertex="1">
          <mxGeometry as="geometry" x="230" y="240" width="40" height="20"/>
        </mxCell>
        <mxCell id="cXWGN66kRqV1Yj_a_ciC-29" value="" style="rhombus;whiteSpace=wrap;html=1;" parent="1" vertex="1">
          <mxGeometry as="geometry" x="390" y="405" width="30" height="30"/>
        </mxCell>
        <mxCell id="cXWGN66kRqV1Yj_a_ciC-30" value="" style="endArrow=none;html=1;exitX=0;exitY=0.5;exitDx=0;exitDy=0;entryX=1;entryY=0.5;entryDx=0;entryDy=0;" target="cXWGN66kRqV1Yj_a_ciC-29" parent="1" source="cXWGN66kRqV1Yj_a_ciC-8" edge="1">
          <mxGeometry as="geometry" width="50" height="50" relative="1">
            <mxPoint as="sourcePoint" x="420" y="480"/>
            <mxPoint as="targetPoint" x="510" y="340"/>
          </mxGeometry>
        </mxCell>
        <mxCell id="cXWGN66kRqV1Yj_a_ciC-31" value="Results" style="text;html=1;align=center;verticalAlign=middle;resizable=0;points=[];autosize=1;" parent="1" vertex="1">
          <mxGeometry as="geometry" x="375" y="385" width="60" height="20"/>
        </mxCell>
        <mxCell id="cXWGN66kRqV1Yj_a_ciC-32" value="" style="endArrow=none;html=1;exitX=0;exitY=0.5;exitDx=0;exitDy=0;entryX=1;entryY=0.5;entryDx=0;entryDy=0;" parent="1" edge="1">
          <mxGeometry as="geometry" width="50" height="50" relative="1">
            <mxPoint as="sourcePoint" x="390" y="419.5"/>
            <mxPoint as="targetPoint" x="290" y="419.5"/>
          </mxGeometry>
        </mxCell>
        <mxCell id="cXWGN66kRqV1Yj_a_ciC-33" value="1...1" style="text;html=1;align=center;verticalAlign=middle;resizable=0;points=[];autosize=1;" parent="1" vertex="1">
          <mxGeometry as="geometry" x="290" y="400" width="40" height="20"/>
        </mxCell>
        <mxCell id="cXWGN66kRqV1Yj_a_ciC-34" value="1...N" style="text;html=1;align=center;verticalAlign=middle;resizable=0;points=[];autosize=1;" parent="1" vertex="1">
          <mxGeometry as="geometry" x="480" y="400" width="40" height="20"/>
        </mxCell>
        <mxCell id="cXWGN66kRqV1Yj_a_ciC-35" value="Speciality" style="ellipse;whiteSpace=wrap;html=1;" parent="1" vertex="1">
          <mxGeometry as="geometry" x="270" y="110" width="80" height="40"/>
        </mxCell>
        <mxCell id="cXWGN66kRqV1Yj_a_ciC-36" value="" style="endArrow=none;html=1;exitX=1;exitY=0;exitDx=0;exitDy=0;entryX=0.5;entryY=1;entryDx=0;entryDy=0;" target="cXWGN66kRqV1Yj_a_ciC-35" parent="1" source="cXWGN66kRqV1Yj_a_ciC-6" edge="1">
          <mxGeometry as="geometry" width="50" height="50" relative="1">
            <mxPoint as="sourcePoint" x="360" y="180"/>
            <mxPoint as="targetPoint" x="420" y="150"/>
          </mxGeometry>
        </mxCell>
        <mxCell id="cXWGN66kRqV1Yj_a_ciC-37" value="Results" style="ellipse;whiteSpace=wrap;html=1;" parent="1" vertex="1">
          <mxGeometry as="geometry" x="640" y="490" width="80" height="40"/>
        </mxCell>
        <mxCell id="cXWGN66kRqV1Yj_a_ciC-38" value="" style="endArrow=none;html=1;entryX=0.625;entryY=0;entryDx=0;entryDy=0;exitX=1;exitY=1;exitDx=0;exitDy=0;entryPerimeter=0;" target="cXWGN66kRqV1Yj_a_ciC-37" parent="1" edge="1">
          <mxGeometry as="geometry" width="50" height="50" relative="1">
            <mxPoint as="sourcePoint" x="640" y="450"/>
            <mxPoint as="targetPoint" x="260" y="830"/>
          </mxGeometry>
        </mxCell>
        <mxCell id="cXWGN66kRqV1Yj_a_ciC-39" value="Date" style="ellipse;whiteSpace=wrap;html=1;" parent="1" vertex="1">
          <mxGeometry as="geometry" x="450" y="490" width="80" height="40"/>
        </mxCell>
        <mxCell id="cXWGN66kRqV1Yj_a_ciC-40" value="" style="endArrow=none;html=1;entryX=0.625;entryY=0;entryDx=0;entryDy=0;exitX=0;exitY=1;exitDx=0;exitDy=0;entryPerimeter=0;" target="cXWGN66kRqV1Yj_a_ciC-39" parent="1" edge="1">
          <mxGeometry as="geometry" width="50" height="50" relative="1">
            <mxPoint as="sourcePoint" x="520" y="450"/>
            <mxPoint as="targetPoint" x="70" y="830"/>
          </mxGeometry>
        </mxCell>
        <mxCell id="cXWGN66kRqV1Yj_a_ciC-41" value="" style="endArrow=none;html=1;exitX=0;exitY=0;exitDx=0;exitDy=0;entryX=0.5;entryY=1;entryDx=0;entryDy=0;" target="cXWGN66kRqV1Yj_a_ciC-43" parent="1" edge="1">
          <mxGeometry as="geometry" width="50" height="50" relative="1">
            <mxPoint as="sourcePoint" x="580" y="390"/>
            <mxPoint as="targetPoint" x="560" y="560"/>
          </mxGeometry>
        </mxCell>
        <mxCell id="cXWGN66kRqV1Yj_a_ciC-43" value="" style="rhombus;whiteSpace=wrap;html=1;" parent="1" vertex="1">
          <mxGeometry as="geometry" x="565" y="195" width="30" height="30"/>
        </mxCell>
        <mxCell id="cXWGN66kRqV1Yj_a_ciC-44" value="" style="endArrow=none;html=1;entryX=1;entryY=0.5;entryDx=0;entryDy=0;exitX=0;exitY=0.5;exitDx=0;exitDy=0;" target="cXWGN66kRqV1Yj_a_ciC-6" parent="1" source="cXWGN66kRqV1Yj_a_ciC-43" edge="1">
          <mxGeometry as="geometry" width="50" height="50" relative="1">
            <mxPoint as="sourcePoint" x="560" y="210"/>
            <mxPoint as="targetPoint" x="580" y="240"/>
          </mxGeometry>
        </mxCell>
        <mxCell id="cXWGN66kRqV1Yj_a_ciC-47" value="1...1" style="text;html=1;align=center;verticalAlign=middle;resizable=0;points=[];autosize=1;" parent="1" vertex="1">
          <mxGeometry as="geometry" x="290" y="195" width="40" height="20"/>
        </mxCell>
        <mxCell id="cXWGN66kRqV1Yj_a_ciC-48" value="0...N" style="text;html=1;align=center;verticalAlign=middle;resizable=0;points=[];autosize=1;" parent="1" vertex="1">
          <mxGeometry as="geometry" x="580" y="370" width="40" height="20"/>
        </mxCell>
        <mxCell id="cXWGN66kRqV1Yj_a_ciC-45" value="Treats" style="text;html=1;align=center;verticalAlign=middle;resizable=0;points=[];autosize=1;" parent="1" vertex="1">
          <mxGeometry as="geometry" x="555" y="175" width="50" height="20"/>
        </mxCell>
      </root>
    </mxGraphModel>
  </diagram>
</mxfile>
